<svg version="1" xmlns="http://www.w3.org/2000/svg" width="1613.333" height="1613.333" viewBox="0 0 1210.000000 1210.000000"><path d="M576.5 155.1c-13.9 1.1-32.1 4.1-45.4 7.7l-10.3 2.7-5 6.5c-6.3 8.3-14 24.1-17.1 35-3.2 10.9-4.7 25.2-4.7 43.8-.1 16.8-1.5 38.3-3 45.8-1.1 5-1.1 5.1-6.8 6.8-19.7 6.2-35.5 19.4-55.7 46.4l-9 12-12 4.2c-51.4 18.1-66.3 34.1-72.9 78.5-2.3 14.8-2.4 15-8.8 16.5-8.5 2-21.6 6.9-30.3 11.3-27.9 14-46.1 35.2-73 85.1l-7 13-6.6 2.2c-9.1 3-20.4 8.8-26.8 13.7-6.4 5-15.1 15.6-21.7 26.6l-4.7 7.8-11.6.1c-13.7 0-22.6 1.9-32.3 6.9-11.3 5.9-21.4 17.6-28.3 32.8-3.5 7.6-12.9 35.5-14 41.8-.7 3.3-1.5 4.1-7.4 7.4-24.2 13.3-40.8 31.5-46.2 50.8-.9 3.1-1.4 9.6-1.4 17 .1 9.7.5 13.3 2.3 18.9 4.7 14.2 11.9 26 23.5 38.3l7.3 7.8-2.7 42.5c-3.9 59.6-3.9 59.4.1 71 14 41.6 41.9 76.6 69.5 87.5 8.2 3.2 16.3 4.2 22.3 2.5 5.7-1.5 12.4-7.7 15.3-14.3 2.2-4.7 2.4-6.5 2.4-20.7 0-11.1-.5-17.8-1.8-23.7-3.9-18.1-14.7-48.8-21.8-62.1-13.3-24.9-19.6-38-20.8-43.9-1.9-8.8-1-20.6 1.9-26.3 3.7-7.4 3.5-7.3 10.6-3 15.7 9.7 28.8 14.7 34.7 13.5 7.6-1.7 12.4-7.9 16.1-20.7 2.4-8.4 4.9-24.6 6.1-39.1.7-7.4.8-7.9 2.8-7.4 31.4 7.6 46.8 6.8 57.6-2.9l4.7-4.2 37.5-4.1c67.2-7.3 150.7-16.1 152.6-16.1.9 0 1.3 9.1 1.5 35.7.4 32.7.6 36.4 2.5 42.3 6.1 19.6 14.4 25.1 28.3 18.7 5.9-2.7 19.3-16.2 25.4-25.6 6-9.2 14.6-26.4 15.3-30.5.2-1.7-.5-12.1-1.6-23.1-1.2-11-2.1-21.1-2.1-22.5v-2.6l35.3-3.7c44.2-4.8 106.3-11.4 161-17.2 23.2-2.5 59.1-6.3 79.7-8.5s39.1-4.2 41.1-4.5c3.4-.4 3.6-.2 7.6 5.8 7.2 10.9 18.7 16.5 29.9 14.7 15.3-2.5 23.5-7 29.5-16.3 2.2-3.3 3.9-6.7 3.9-7.6.1-3.7 1.6-4.2 19.6-6.1 17.3-1.8 44.7-4.8 121.9-13 20.4-2.2 58.4-6.2 84.5-9s49.6-5.3 52.2-5.6c5.2-.6 7.8-3 14.4-12.8 6.2-9.3 5.9-16-.8-20.3l-4.2-2.6-15.1 1.7c-24.9 2.8-116 13.4-194.8 22.6-42.7 5-69.7 8-71.9 8-2 0-2-.4-1.6-11.3.4-9.4 1-13.1 4.2-23.2 9.1-29.1 15.9-38.7 43.5-61.9 8-6.7 19.8-16.1 26.2-20.8 10.5-7.8 11.9-9.2 14.8-14.9 1.7-3.4 3.1-7 3.1-8 0-4.6.6-4.8 9.6-2.8 13.2 2.9 31.5 9.4 45.8 16.2 28.4 13.7 51.7 29.1 105.7 69.9 13 9.8 24 17.8 24.5 17.8s2.2-1.3 3.7-3c1.6-1.7 3.3-3 3.8-3s.9-4.2.9-9.4v-9.4l-7.6-12.4c-27.6-44.5-69.6-104.3-102.3-145.8-51-64.7-109.1-125.8-163.6-172.1C792 196 676.8 147.4 576.5 155.1zm38.5 32.2c63.8 13.6 117 35.1 179 72.5 100.5 60.6 206.9 159.8 325.7 303.6 19.3 23.4 19.2 23.2 15.4 28.6-1.4 1.9-2.9 2.6-6 2.8-7.4.6-17.6-5.1-47.1-26.1-46.6-33.3-68-44.1-89.5-45.4-21.4-1.4-32.8 6.3-50.1 33.8-11.4 18-16.3 27.8-20.4 40.4-1.7 5.5-3.5 10.8-3.8 11.8-.4 1-4.1 3.2-8.2 5-27.8 12.1-36 30.7-38 85.7-.5 12.9-1.4 25.4-2.1 27.8-1.7 6.4-5.7 9.2-12.8 9.2-3.3 0-6.5-.6-7.7-1.4-3.1-2.2-7.1-12-9.1-22.6-2.2-11.5-2.3-44.6-.2-60.5 2.1-16.5 1.8-23.2-1.3-28.6-4.1-7-12.4-12-23.3-14l-5.3-1-33.3 13.7-33.4 13.7-24.6 2-24.7 2-7.1-2.3c-14.2-4.5-28.8-1.4-48.9 10.5l-9.3 5.4-21.6-4c-11.8-2.2-23.4-4.4-25.7-4.9-2.7-.6-4.3-.5-4.7.2-.4.5-4.2 9.7-8.5 20.4-4.7 11.7-8.4 19.6-9.4 19.8-.8.2-15 3.2-31.5 6.7-16.5 3.4-30.3 6.5-30.7 6.8-.4.4-5 24.3-10.3 53.1-5.3 28.9-10.3 55.6-11.2 59.5-1.7 7.5-4.7 14.5-6.3 14.5-1.8 0-4-4.6-6-12.6-2.2-8.5-11.5-67.2-15-94.4-1.9-15.3-2.3-16.7-4.8-19.1-17.7-16.9-21.4-20-22.7-19.5-.8.3-11.6 8-24 17.1-12.4 9-23.9 17.2-25.5 18-8.4 4.4-23 5.6-35.6 2.9-4.2-.8-7.8-1.3-8.1-1.1-.9 1 4.7 10.5 9.3 15.6 7 7.8 14.4 11.1 24.9 11.1 9.3 0 16.2-1.5 32.7-7.1 18.2-6.1 27.8-5.4 34.3 2.3 2.8 3.4 3.2 4.8 1 4.8-.8 0-10.8 1.1-22.2 2.4-11.4 1.4-40.8 4.8-65.3 7.6s-53.7 6.2-64.9 7.5c-11.3 1.4-20.6 2.3-20.8 2.2-.1-.2 1.3-4.9 3.1-10.5 5.5-16.2 12.5-25.1 23.1-29.2l5-1.9h-4.6c-14.8-.2-27.1 9.2-50.4 38.2l-11.9 14.9-4-.6c-6.6-1.1-16.4-5.8-28.5-13.6-16.3-10.4-15.6-10.3-22.8-4.7-7.6 5.8-10.9 9.7-14.2 16.7-2.6 5.5-2.6 5.6-2.5 30.7l.1 25.3h-2.6c-1.4 0-8-.9-14.6-2-13.5-2.2-25.5-2.5-32-.9l-4.4 1.1-4.2 17.2c-3.7 14.8-4.2 18.6-4.3 28.6-.1 15.3 1.3 19.9 13.3 45 17 35.3 24.8 59.4 25.8 79.1.4 8.5.2 11.1-1.1 13.7-3.5 6.8-9.9 4.8-20.4-6.2-11.2-11.8-22-28.3-37.3-56.7l-8.1-15.1-.5-10.1c-.5-10.3.7-19.6 6.8-49.9 1-5.3 1.9-12.4 1.9-15.7 0-12.8-4.7-28.5-14.2-47.6-10-20-11.2-25.5-8.3-37 5.4-21 20.4-37.3 44.1-47.9l6.1-2.8 1.8-6.6c11.5-43.8 20.7-54.3 60.3-68.7l13.2-4.8 3.5-5.6c13.2-21.3 29.8-33.1 55-39.1 4.4-1 10.8-2.2 14.1-2.5 3.4-.4 6.6-1 7.2-1.4.6-.4 2.1-5.1 3.2-10.5 8.8-40.6 26.4-66.7 54.4-80.8 15.7-7.9 45.2-15.5 64.1-16.5 19.6-1.1 71.9 12.4 106.5 27.4 6.9 3 13.6 5.9 15 6.5 2.2.9 4 .3 13-4 17.6-8.4 44.1-15.8 65.4-18.3 11.5-1.4 41.5-.7 49.7 1.1l5.6 1.2 9.9-9.9c5.9-5.9 12.7-11.5 16.9-14 8.1-4.8 24.2-11.4 34.1-14 4.8-1.2 6.1-1.9 4.4-2.1-1.4-.2-7.4-1.4-13.3-2.8l-10.8-2.5-9.5-9.9c-21.6-22.4-45.1-35.3-73.9-40.5-8.3-1.5-13.6-1.7-34.2-1.2l-24.3.5-2-2.8c-2.9-4-15.4-13.3-23.5-17.3s-19.8-8.1-21.5-7.5c-1.4.4 3 6.2 13.9 18.3 10.5 11.6 10.5 14.5.2 15.9-6.1.8-21.7 8.7-31.6 16.1-17.4 12.9-29.6 26.7-37.2 42.2-2.5 5.1-4.7 9.3-4.9 9.3-.3 0-1.5-.7-2.7-1.5-5.4-3.5-14.3-5.6-28.7-6.6-23.6-1.7-23.4-1.6-20.2-14.2 6.1-24 22-45.3 44.2-59.1 8.4-5.2 21-11.3 28.3-13.6 3.2-1 4.2-2.1 6.5-6.8 5-10.2 11.3-18.5 22.6-29.7 11.6-11.6 27.6-23.1 40.8-29.6l6.7-3.3 1.5-6.5c3.7-15.9 4.5-24 5.5-59.1l.8-27.6 3.5-7.4c4.3-9.4 12.6-18.6 20.6-22.8 9.8-5.2 15.6-6.2 33.7-5.8 13.5.4 18.6 1 32.5 3.9zM809.4 649c5 1.9 5.7 4.4 7.1 27.2.7 11.7 1 21.6.7 21.9-.4.4-8.8 1.6-18.7 2.8-9.9 1.1-37.3 4.3-61 7.1-23.6 2.7-64.4 7.5-90.5 10.5-26.1 3-58.7 6.8-72.5 8.5-13.7 1.6-29.7 3.4-35.5 4-5.8.6-11.5 1.3-12.7 1.6-4 .8-2.4-1 4-4.7l6.3-3.7 15.9-.4c13.4-.4 16.9-.8 21.6-2.6 10.4-4.1 18.3-13.1 26-29.8 3.2-7.1 4.2-8.5 5.7-7.9 11.6 4.5 19.1 5.8 32.7 5.9 12.8.1 14.7-.1 22.1-2.7 9.5-3.2 21-10.5 30-19l6.5-6.1 12.8 3.3c35.4 8.9 57.2 5.7 82-12.1 6.9-5 11.7-6 17.5-3.8z"/><path d="M608.6 282c-3.9 9.4-7.2 17-7.4 17-.3 0-7.1-6.3-15.2-14s-15-14-15.4-14c-.3 0-.6 8.7-.6 19.4v19.4l-14.1 13.4c-13.3 12.5-14 13.3-11.3 13.6 1.6.1 14.9 1.1 29.6 2.1l26.8 1.9 10.2 5.5c30.6 16.4 59.2 32.4 59.4 33.3.2.5-7.1 5.6-16.2 11.3-9.1 5.7-16.3 10.6-16 10.8.2.3 5.9 0 12.4-.6 16.8-1.5 42.9-1.4 54.2.3 30.9 4.7 50.9 17.9 68.2 45.2l4.5 7 10.4 1.8c37.2 6.3 60.1 15.8 78 32.5 9.3 8.6 15 15.8 23 28.9 5.4 8.8 5.9 9.3 6.8 7.1 6-15.3 17.7-44.7 19.6-49.2 1.4-3.2 2.5-6 2.5-6.3 0-.2-7.6-.4-17-.4-11.6 0-17-.3-17-1.1 0-.6 5.2-10.3 11.6-21.5 6.4-11.3 11.4-20.7 11.2-20.9-.2-.2-12.3 1.4-26.8 3.6-14.6 2.2-28.4 4.2-30.8 4.6l-4.3.6 2-4.9c1-2.7 5.4-13.5 9.6-23.9 4.2-10.5 8.6-21.2 9.6-23.8l1.9-4.8-2.3 1.2c-1.2.7-16.3 8.8-33.6 18.1s-31.6 16.6-31.9 16.4c-.2-.3 3.6-13.7 8.6-29.8s8.9-29.5 8.7-29.7c-.3-.3-28.3 18.4-42.2 28.3-2.4 1.6-4.5 2.7-4.7 2.5-.3-.3.2-2.7 1-5.4 2.1-7.1 12.4-44.2 12.4-44.8 0-.4-8.9 5.7-19.8 13.3-11 7.7-20.2 14-20.5 14-.4 0-.8-6.9-.8-15.3-.1-8.3-.4-19.5-.8-24.7l-.6-9.5-18.4 27.2c-10.1 15-18.7 27.1-19.1 26.8-.4-.2-1-2.1-1.3-4.2-1.6-11.3-9.8-58-10.5-59.4-.5-1.3-4 1.9-15.7 14.4-8.2 8.8-15 15.6-15.2 15.1-.1-.5-1.6-9.9-3.3-20.9-1.6-11-3.2-21.6-3.6-23.4l-.6-3.5-3.1 5.5c-1.6 2.9-4.9 8.7-7.2 12.8l-4.3 7.3-11.3-21.6c-6.3-11.9-11.6-21.6-11.9-21.6-.3 0-3.6 7.7-7.4 17zM740.5 497.5c-12.8 1.9-20.5 3.9-32.8 8.4-23.2 8.6-50.5 24.4-74.1 42.8-3.7 2.9-7.3 5.3-7.8 5.3-.6 0-3-1.8-5.4-3.9-5.4-5.1-14.6-9.7-23.1-11.7-9.8-2.3-27.7-1.4-47.3 2.5-8.5 1.6-17.7 3.3-20.5 3.7-4.7.7-4.8.8-2 1.5 1.7.4 11.8 1.5 22.5 2.4 10.7.8 22.2 2.2 25.6 3 11.6 2.7 30 10.7 28.9 12.5-.3.5-10.2 8.8-22 18.6-11.9 9.7-21.4 17.8-21.3 17.9.2.2 4.4-.8 9.3-2 22.1-5.6 33.5-7 58-7 21.1.1 24 .3 35.7 2.8 12.8 2.7 39.1 10.6 50.4 15l6.1 2.4 6.9-4.4c42.6-27.1 94.3-44.7 133.6-45.4 4.6-.1 4.9-.2 2.3-.9-1.6-.4-9.7-2.1-17.9-3.6-13-2.4-15-3-15.4-4.8-1.4-5.5-11.7-23.8-16.7-29.9-16.9-20.5-43.5-29.6-73-25.2zM437.4 528c-27 7.9-47.8 19.3-61.1 33.4-6.6 6.9-13 15.6-15.4 20.8-1.1 2.5-1.6 2.6-11.3 3-11.4.5-18.3 2.7-26.4 8.3l-4.9 3.3-6.9-1.5c-8.9-2.1-35.1-2.3-45.2-.4-4.1.7-7 1.7-6.5 2.1.4.4 5.3 2.4 10.8 4.4 13.7 5 17.2 6.6 21.7 9.8 4.7 3.4 4.8 5 .5 7-9.1 4.3-22 18.3-26.7 29l-2 4.5-9.2.6c-19.1 1.2-44 11.5-61.8 25.7l-2.5 2h2.5c1.4 0 10.8-.7 21-1.5 26-2.2 54.6-2.2 69 0 10.9 1.6 28 6.1 38 10l4.5 1.8 9.5-5.7c26.6-15.9 50.2-23.7 76.7-25.2l11.3-.7 6.5-11.1c9.4-15.9 15.6-24 22.5-29 7-5.2 19.6-10 31.6-12.1 7.6-1.3 31.6-3.4 41.9-3.5l4-.1-5-2.3c-5.9-2.7-21.7-7.9-29.5-9.7-9.2-2.2-25.3-1.7-34 1s-16.5 6.5-23.4 11.5c-3.6 2.5-5.4 3.2-6.5 2.6-7.9-4.6-36.5-23.8-36.8-24.7-.4-1 22.4-25.7 44.6-48.6 3.6-3.7 6.1-6.7 5.6-6.6-.6 0-3.7.9-7.1 1.9z"/></svg>